<svg 
 xmlns="http://www.w3.org/2000/svg"
 xmlns:xlink="http://www.w3.org/1999/xlink"
 width="22px" height="25px">
<path fill-rule="evenodd"  fill="rgb(255, 255, 255)"
 d="M20.50,24.967 L2.3,25.13 C0.924,25.19 0.45,24.99 0.40,22.961 L0.3,2.110 C0.7,0.971 0.864,0.44 1.943,0.39 L19.990,0.6 C21.70,0.11 21.949,0.906 21.954,2.45 L21.997,22.896 C22.2,24.34 21.130,24.962 20.50,24.967 ZM3.17,16.720 L7.809,16.720 L6.211,11.657 L3.17,11.657 L3.17,16.720 ZM3.17,9.969 L12.601,9.969 L11.3,3.219 L3.17,3.219 L3.17,9.969 ZM18.990,3.219 L12.601,3.219 L14.198,9.969 L18.990,9.969 L18.990,3.219 ZM18.990,11.657 L9.406,11.657 L11.3,16.720 L18.990,16.720 L18.990,11.657 ZM18.990,18.407 L3.17,18.407 L3.17,21.782 L18.990,21.782 L18.990,18.407 Z"/>
</svg>
